<svg width="180" height="40" viewBox="0 0 180 40" fill="none" xmlns="http://www.w3.org/2000/svg">
  <path d="M20 0L40 20L20 40L0 20L20 0Z" fill="#1E40AF"/>
  <path d="M20 8L32 20L20 32L8 20L20 8Z" fill="#B45309"/>
  <path d="M50 12H55.88C59.28 12 61.44 14.2 61.44 17.44C61.44 20.68 59.28 22.88 55.88 22.88H50V12ZM55.64 20.8C57.84 20.8 59.16 19.48 59.16 17.44C59.16 15.4 57.84 14.08 55.64 14.08H52.2V20.8H55.64Z" fill="#171717"/>
  <path d="M66.9997 12.16C69.6397 12.16 71.1597 13.68 71.1597 16.04V22.88H69.0397V21.32C68.3197 22.44 67.1597 23.08 65.4797 23.08C63.5197 23.08 62.0797 21.96 62.0797 20.28C62.0797 18.52 63.4397 17.4 65.9597 17.4H68.9997V15.96C68.9997 14.76 68.2797 13.96 66.8797 13.96C65.7597 13.96 64.8797 14.56 64.6797 15.44H62.4797C62.7997 13.4 64.4797 12.16 66.9997 12.16ZM66.5597 21.36C67.7997 21.36 68.9997 20.48 68.9997 19.08V18.96H66.1197C64.9197 18.96 64.3197 19.44 64.3197 20.16C64.3197 20.92 65.0397 21.36 66.5597 21.36Z" fill="#171717"/>
  <path d="M77.9391 12.16C80.2591 12.16 81.9391 13.48 82.1391 15.36H80.0991C79.9791 14.48 79.1391 13.84 77.9391 13.84C76.7391 13.84 75.8991 14.48 75.8991 15.28C75.8991 15.88 76.3391 16.28 77.1791 16.48L79.1791 16.92C81.0591 17.36 81.9791 18.28 81.9791 19.84C81.9791 21.88 80.1391 23.08 77.8191 23.08C75.3391 23.08 73.6591 21.8 73.3791 19.84H75.4191C75.6991 20.8 76.5791 21.4 77.8591 21.4C79.0991 21.4 79.9791 20.76 79.9791 19.92C79.9791 19.32 79.5391 18.92 78.7391 18.72L76.7391 18.28C74.9791 17.84 73.9791 16.88 73.9791 15.32C73.9791 13.36 75.5991 12.16 77.9391 12.16Z" fill="#171717"/>
  <path d="M89.2616 12.16C91.9016 12.16 93.7816 14.04 93.7816 16.72V17.72H86.7016C86.8616 19.36 87.9816 20.48 89.7016 20.48C91.0216 20.48 91.8616 19.92 92.2216 19.04H93.7416C93.3016 20.76 91.8216 22 89.6616 22C87.0616 22 85.2616 20.08 85.2616 17.08C85.2616 14.08 87.1016 12.16 89.2616 12.16ZM86.7016 16.44H92.3416C92.2616 14.88 91.2216 13.68 89.6216 13.68C88.0216 13.68 86.8616 14.8 86.7016 16.44Z" fill="#171717"/>
  <path d="M107.661 18.8H109.221C108.901 20.68 107.221 22 104.861 22C101.861 22 100.021 19.96 100.021 16.96C100.021 13.96 101.861 12 104.741 12C107.261 12 109.061 13.68 109.061 16.16V17.04H101.501C101.621 19.2 102.781 20.44 104.901 20.44C106.301 20.44 107.261 19.8 107.661 18.8ZM101.541 15.72H107.701C107.661 14.04 106.621 13.52 104.781 13.52C103.061 13.52 101.781 14.36 101.541 15.72Z" fill="#171717"/>
  <path d="M117.176 20.6H122.776V22H114.856V12H117.176V20.6Z" fill="#171717"/>
  <path d="M128.591 12.16C131.231 12.16 132.751 13.68 132.751 16.04V22H130.431V16.2C130.431 14.76 129.551 13.84 127.991 13.84C126.271 13.84 125.111 14.92 125.111 16.72V22H122.791V8.4H125.111V13.32C125.831 12.56 127.031 12.16 128.591 12.16Z" fill="#171717"/>
  <path d="M142.658 12.16C145.298 12.16 146.818 13.68 146.818 16.04V22H144.498V16.2C144.498 14.76 143.618 13.84 142.058 13.84C140.338 13.84 139.178 14.92 139.178 16.72V22H136.858V12.16H139.058V13.36C139.778 12.56 140.978 12.16 142.658 12.16Z" fill="#171717"/>
  <path d="M149.174 12.16H151.374V13.36C152.094 12.56 153.294 12.16 154.974 12.16C157.614 12.16 159.134 13.68 159.134 16.04V22H156.814V16.2C156.814 14.76 155.934 13.84 154.374 13.84C152.654 13.84 151.494 14.92 151.494 16.72V22H149.174V12.16Z" fill="#171717"/>
  <path d="M161.69 12.16H163.89V13.36C164.61 12.56 165.81 12.16 167.49 12.16C170.13 12.16 171.65 13.68 171.65 16.04V22H169.33V16.2C169.33 14.76 168.45 13.84 166.89 13.84C165.17 13.84 164.01 14.92 164.01 16.72V22H161.69V12.16Z" fill="#171717"/>
</svg>